<svg width="32" height="39" viewBox="0 0 32 39" fill="none" xmlns="http://www.w3.org/2000/svg">
<path d="M0.0158743 15.5906C0.0158743 15.5042 0.0210556 15.413 0.0210556 15.3314C0.0262398 15.2739 0.0262341 15.2221 0.0314182 15.1646C0.0417865 14.9296 0.0625241 14.6946 0.0836927 14.46V14.4077C0.0992452 14.3032 0.10962 14.1939 0.119988 14.0893C0.125172 14.0526 0.125167 14.0215 0.130351 13.9848C0.15152 13.8284 0.173558 13.672 0.198182 13.5152C0.197831 13.5124 0.198116 13.5095 0.199013 13.5068C0.19991 13.5041 0.201394 13.5017 0.203364 13.4996C0.240085 13.2404 0.287175 12.9812 0.339449 12.7272C0.341418 12.7252 0.342902 12.7227 0.343799 12.72C0.344697 12.7173 0.344981 12.7145 0.34463 12.7116C0.365367 12.5967 0.39129 12.487 0.417643 12.3725C0.490652 12.0645 0.568842 11.7565 0.657404 11.4541C0.720046 11.245 0.782697 11.0363 0.855707 10.8276C0.902796 10.9685 0.949881 11.1093 1.00215 11.245C1.03844 11.3443 1.07516 11.4433 1.11145 11.5374V11.5426C1.11705 11.5631 1.12596 11.5825 1.1378 11.6001C1.14817 11.6208 1.15335 11.6433 1.16372 11.6627C1.216 11.8036 1.27347 11.9392 1.33654 12.0749C1.35773 12.1319 1.38209 12.1877 1.40954 12.242V12.2472C1.41616 12.2638 1.42487 12.2795 1.43546 12.2939L1.44065 12.2991C1.44209 12.3199 1.44943 12.3398 1.46181 12.3565C1.51942 12.487 1.58206 12.6175 1.64974 12.7479C1.6632 12.7803 1.67879 12.8118 1.69639 12.8421C1.70891 12.8692 1.72336 12.8953 1.7396 12.9203C1.77114 12.9933 1.80743 13.0611 1.84415 13.129C1.8908 13.2128 1.93775 13.2963 1.98498 13.3795C2.0054 13.4224 2.02805 13.4643 2.05281 13.5048C2.04763 13.51 2.05281 13.51 2.05281 13.51C2.07355 13.5532 2.0999 13.5934 2.12582 13.6353C2.21223 13.8025 2.31375 13.964 2.41786 14.1261C2.53796 14.3242 2.66324 14.5173 2.79371 14.7054C2.81824 14.7352 2.8409 14.7665 2.86155 14.7991C2.98164 14.9719 3.10693 15.1447 3.23221 15.3106C3.34194 15.4567 3.45641 15.5975 3.57133 15.7383C3.62879 15.8118 3.68625 15.8848 3.74889 15.9543C3.78518 16.001 3.82709 16.0481 3.869 16.0952C3.96274 16.2101 4.06728 16.3246 4.1714 16.4408C4.18924 16.4628 4.20843 16.4838 4.22885 16.5034C4.37532 16.6654 4.52653 16.8218 4.68291 16.9786L15.9714 28.2723L27.2646 16.9786C27.4893 16.7544 27.7031 16.5246 27.9127 16.2952C28.0328 16.1595 28.1529 16.0187 28.2678 15.8779C28.311 15.8308 28.346 15.7837 28.3879 15.7366C28.5287 15.5638 28.6644 15.3871 28.7948 15.2095C28.8315 15.1573 28.8678 15.1106 28.9046 15.0583C28.9724 14.9698 29.0342 14.8756 29.1029 14.7818C29.1551 14.7088 29.2018 14.6354 29.2489 14.5624C29.2749 14.5289 29.2993 14.4942 29.3219 14.4583C29.4575 14.2496 29.5932 14.0353 29.7185 13.8215C29.7811 13.7169 29.8386 13.618 29.896 13.5135C29.905 13.4925 29.9172 13.4731 29.9323 13.456C29.9898 13.3519 30.042 13.2422 30.0995 13.1376C30.1725 13.002 30.2403 12.8663 30.3082 12.7307C30.3217 12.7078 30.3324 12.6832 30.3397 12.6576C30.359 12.622 30.3765 12.5854 30.392 12.5479C30.4045 12.5282 30.4149 12.5072 30.4231 12.4853C30.4438 12.4421 30.4663 12.4071 30.4805 12.3708C30.5276 12.2714 30.5669 12.1777 30.6058 12.0783C30.6476 11.9954 30.6842 11.91 30.7156 11.8226C30.7311 11.7915 30.7415 11.7651 30.7588 11.734C30.7588 11.7288 30.7639 11.7236 30.7639 11.7184C30.884 11.4208 30.9938 11.1283 31.0875 10.8311C31.1605 11.0398 31.2232 11.2484 31.2858 11.4575C31.329 11.5983 31.3696 11.7392 31.4059 11.88C31.4422 12.0209 31.4841 12.1721 31.5156 12.3237C31.5571 12.4905 31.5935 12.6573 31.6249 12.8244C31.6617 12.9916 31.6932 13.1588 31.7191 13.3307C31.745 13.5027 31.7766 13.6703 31.7973 13.8422C31.8181 13.9831 31.834 14.1295 31.8496 14.2703C31.8548 14.3226 31.86 14.3693 31.8651 14.4215C31.8807 14.5676 31.8915 14.7192 31.9019 14.8652V14.8704C31.9174 15.0268 31.9226 15.1784 31.9278 15.3348C31.9382 15.5508 31.9433 15.7578 31.9433 15.9716C31.9433 16.274 31.933 16.582 31.9122 16.8849C31.7002 20.8003 30.0455 24.4983 27.2672 27.2653L15.9895 38.5378L15.974 38.5533L4.68551 27.2653C3.85693 26.4401 3.12354 25.5245 2.49908 24.5358C2.49908 24.5302 2.49389 24.5255 2.49389 24.5198C1.03323 22.2301 0.188321 19.602 0.0409239 16.8901C0.010251 16.4516 -0.000110124 16.0239 0.0158743 15.5906Z" fill="url(#paint0_linear_2_15)"/>
<path d="M4.9061 4.4641C7.51822 1.94793 10.9099 0.39732 14.5218 0.068088C18.1338 -0.261144 21.75 0.650683 24.7739 2.65312C24.7947 2.66349 24.8106 2.67386 24.821 2.67948C25.6124 3.20659 26.3547 3.80387 27.039 4.4641L26.6069 4.89611L15.9713 15.5267L5.27806 4.83476V4.82958L5.24177 4.7929L4.9061 4.4641Z" fill="url(#paint1_linear_2_15)"/>
<path d="M0.855988 10.8259C1.38391 9.25566 2.15539 7.77813 3.14219 6.44745C3.23594 6.32217 3.33011 6.19688 3.43423 6.0716C3.52841 5.9515 3.62734 5.8314 3.7267 5.7113C3.93018 5.47672 4.13366 5.2417 4.35268 5.01187C4.45722 4.89739 4.56868 4.78766 4.68144 4.67274C4.74948 4.598 4.82283 4.52823 4.90094 4.46408H4.90608L5.24003 4.79284L5.27632 4.82956V4.83475L15.9699 15.5279L26.6056 4.89739L27.0377 4.46538C27.1161 4.53091 27.1909 4.6006 27.2619 4.67404C28.9956 6.40079 30.3036 8.50746 31.0822 10.8272C30.9884 11.1244 30.8787 11.4169 30.7586 11.7145C30.7586 11.7197 30.7534 11.7249 30.7534 11.7301C30.7378 11.7612 30.7275 11.7876 30.7102 11.8187C30.6789 11.9061 30.6422 11.9915 30.6005 12.0744C30.5169 12.2674 30.4283 12.4605 30.3343 12.6537C30.2613 12.8153 30.1775 12.9773 30.0941 13.1337C29.974 13.3635 29.8488 13.5929 29.7131 13.8176C29.5878 14.0314 29.4539 14.2457 29.3165 14.4544C29.3061 14.4647 29.301 14.4803 29.2906 14.4907C29.1653 14.6838 29.0314 14.8769 28.8889 15.07C28.8573 15.1171 28.8262 15.159 28.7895 15.2056C28.6486 15.3936 28.5026 15.5815 28.3575 15.7642L28.3471 15.7746C28.2062 15.9474 28.0601 16.1202 27.9086 16.293C27.6999 16.5224 27.4861 16.7522 27.2606 16.9765L15.9673 28.2701L4.67884 16.9765C3.34325 15.6427 2.25485 14.0826 1.46425 12.3686C1.44855 12.3467 1.43779 12.3217 1.43272 12.2952C1.42213 12.2808 1.41342 12.2651 1.4068 12.2485V12.2433C1.37935 12.189 1.35497 12.1332 1.33378 12.0762C1.27114 11.9405 1.21369 11.8048 1.16098 11.664C1.14064 11.6253 1.12317 11.5852 1.10871 11.5439V11.5387C1.07242 11.4445 1.0357 11.3456 0.999416 11.2462C0.950166 11.1076 0.903077 10.9667 0.855988 10.8259Z" fill="url(#paint2_linear_2_15)"/>
<g style="mix-blend-mode:multiply" opacity="0.06">
<g style="mix-blend-mode:multiply" opacity="0.06">
<path d="M15.9697 15.5275L27.0404 4.46103C27.1169 4.52669 27.1934 4.6032 27.2642 4.67405C27.8195 5.22604 28.3323 5.81915 28.7983 6.44833L15.9697 15.5275Z" fill="black"/>
</g>
</g>
<g style="mix-blend-mode:multiply" opacity="0.06">
<g style="mix-blend-mode:multiply" opacity="0.06">
<path d="M15.9697 28.2671L27.2629 16.9734C27.4876 16.7492 27.7014 16.5194 27.911 16.29C28.0311 16.1491 28.1512 16.0135 28.2661 15.8727C28.3093 15.8256 28.3443 15.7785 28.3862 15.7314C28.527 15.5586 28.6627 15.3819 28.7931 15.2043C28.8298 15.1521 28.8661 15.1054 28.9029 15.0531C28.9707 14.9646 29.0385 14.8704 29.1011 14.7766C29.1534 14.7036 29.2001 14.6302 29.2472 14.5572C29.2733 14.5237 29.2976 14.489 29.3202 14.4531C29.4558 14.2444 29.5915 14.0301 29.7168 13.8163C29.7794 13.7169 29.8369 13.6128 29.8943 13.5083C29.9033 13.4873 29.9156 13.4679 29.9306 13.4508C29.9881 13.3467 30.0455 13.237 30.0978 13.1324C30.1708 12.9968 30.2386 12.8611 30.3065 12.7254C30.3201 12.7026 30.3307 12.678 30.338 12.6524C30.3574 12.6168 30.3748 12.5802 30.3903 12.5427C30.4028 12.523 30.4132 12.502 30.4214 12.4801C30.484 12.3444 30.5467 12.2088 30.6041 12.0731C30.6459 11.9902 30.6825 11.9048 30.7139 11.8174C30.8495 11.4886 30.9731 11.1598 31.0841 10.8237C31.1571 11.0324 31.2197 11.2411 31.2824 11.4501C31.3256 11.591 31.3662 11.7318 31.4025 11.8727C31.4388 12.0135 31.4807 12.1647 31.5122 12.3163C31.5537 12.4831 31.5901 12.65 31.6215 12.817C31.6582 12.9842 31.6898 13.1514 31.7157 13.3234C31.7416 13.4953 31.7731 13.6629 31.7939 13.8349C31.8146 13.9757 31.8306 14.1221 31.8462 14.263C31.8513 14.3153 31.8565 14.3619 31.8617 14.4142C31.8773 14.5602 31.8881 14.7118 31.8984 14.8579V14.863C31.914 15.0194 31.9192 15.1711 31.9243 15.3275C31.9347 15.5435 31.9399 15.7504 31.9399 15.9642C31.9399 16.2667 31.9295 16.5747 31.9088 16.8775L31.736 17.0028L18.2347 26.6492L15.9697 28.2671Z" fill="black"/>
</g>
</g>
<g style="mix-blend-mode:multiply" opacity="0.06">
<g style="mix-blend-mode:multiply" opacity="0.06">
<path d="M3.14221 6.4483C3.23596 6.32302 3.33013 6.19774 3.43425 6.07245C3.52843 5.95235 3.62736 5.83226 3.72672 5.71216C3.9302 5.47757 4.13368 5.24256 4.35269 5.01273C4.45724 4.89824 4.5687 4.78333 4.67627 4.6736H4.68146C4.7495 4.59882 4.82285 4.52909 4.90096 4.46494H4.9061L5.27115 4.8356C5.27115 4.83042 5.27634 4.8356 5.27634 4.8356C5.28372 4.84709 5.29258 4.85755 5.30269 4.86671L15.9699 15.5288L13.8146 14.0051L3.56472 6.74726L3.14221 6.4483Z" fill="black"/>
</g>
</g>
<g style="mix-blend-mode:multiply" opacity="0.06">
<g style="mix-blend-mode:multiply" opacity="0.06">
<path d="M0.42035 12.3669C0.491199 12.0597 0.568089 11.7534 0.657516 11.4501C0.720157 11.2411 0.782808 11.0324 0.855818 10.8237C0.902907 10.9646 0.949992 11.1054 1.00227 11.2411C1.03855 11.3404 1.07528 11.4393 1.11675 11.5335C1.12755 11.5767 1.14828 11.6169 1.16383 11.6588C1.21611 11.7996 1.27357 11.9353 1.33665 12.071C1.35783 12.128 1.3822 12.1838 1.40965 12.2381C1.4151 12.2568 1.42388 12.2744 1.43557 12.29C1.44064 12.3165 1.4514 12.3415 1.46711 12.3634C2.2589 14.0754 3.34521 15.6351 4.67654 16.9713H4.68173L15.9702 28.2649L13.7311 26.6626L0.386652 17.1333L0.0371446 16.8827L0.0319633 16.8775C0.0107947 16.5751 0.000427246 16.2671 0.000427246 15.9642C0.000427246 15.839 0.0112331 15.7137 0.0142572 15.5884C0.0142572 15.502 0.0203068 15.4156 0.0237629 15.3262C0.0358592 15.0238 0.0557311 14.7257 0.0851079 14.4254C0.0993644 14.2768 0.114481 14.1286 0.133058 13.9804C0.15293 13.8241 0.172376 13.6677 0.197001 13.5117C0.240202 13.2434 0.287715 12.9764 0.343013 12.7099C0.366774 12.5971 0.393565 12.4831 0.42035 12.3669Z" fill="black"/>
</g>
</g>
<g style="mix-blend-mode:multiply" opacity="0.14">
<g style="mix-blend-mode:multiply" opacity="0.14">
<path d="M5.23727 4.79495L15.9698 15.5274L26.6038 4.89993C25.7903 5.86073 24.9388 6.77789 24.1037 7.71665C23.2574 8.63943 22.4059 9.56221 21.5436 10.4681C20.6865 11.3853 19.8073 12.2804 18.9394 13.1812L16.2972 15.8562L15.9698 16.1893L15.6423 15.8562L12.9781 13.154C12.0994 12.2424 11.215 11.3417 10.3471 10.4193C9.4792 9.49698 8.61648 8.57377 7.75936 7.64062C6.92428 6.69494 6.06155 5.76655 5.23727 4.79495Z" fill="black"/>
</g>
</g>
<g style="mix-blend-mode:multiply" opacity="0.14">
<g style="mix-blend-mode:multiply" opacity="0.14">
<path d="M1.41037 12.2468C2.20578 14.0072 3.31365 15.6089 4.68025 16.9743L15.9696 28.2688L27.2641 16.9743C28.7659 15.4762 29.9521 13.6923 30.7526 11.7279C30.1299 13.4982 29.186 15.1385 27.9684 16.5665C27.6629 16.9268 27.3298 17.265 27.0132 17.6033L26.058 18.6185L24.12 20.633C21.5434 23.3115 18.9228 25.961 16.2971 28.5976L15.9696 28.9251L15.6421 28.5976L11.8154 24.7328C10.5543 23.4333 9.27691 22.1451 8.02666 20.8296L6.14175 18.8682L5.20817 17.8802C4.90231 17.5471 4.5805 17.2197 4.27461 16.8866C3.0501 15.5237 2.07999 13.9522 1.41037 12.2468Z" fill="black"/>
</g>
</g>
<g style="mix-blend-mode:screen" opacity="0.3">
<g style="mix-blend-mode:screen" opacity="0.3">
<path d="M5.23727 4.79495C6.20887 5.61923 7.13817 6.4798 8.08126 7.31704C9.01466 8.17415 9.9409 9.03675 10.8599 9.9048C11.7827 10.7727 12.6835 11.657 13.595 12.5358L15.9711 14.8777L18.3182 12.5578C19.2254 11.6899 20.1145 10.8107 21.0317 9.95923C21.9432 9.09132 22.8604 8.245 23.7883 7.39351C24.7271 6.56361 25.646 5.71211 26.605 4.89864L15.9711 15.5261L5.23727 4.79495Z" fill="white"/>
</g>
</g>
<g style="mix-blend-mode:screen" opacity="0.3">
<g style="mix-blend-mode:screen" opacity="0.3">
<path d="M1.41037 12.2468C2.23058 13.852 3.30751 15.3124 4.59864 16.5704C5.90851 17.815 7.23388 19.0596 8.53424 20.3207C9.84453 21.5761 11.1328 22.8479 12.4323 24.1146L15.9696 27.6191C18.4969 25.097 21.0426 22.5968 23.6067 20.1185L25.6212 18.1805C26.2925 17.542 26.9911 16.9086 27.6301 16.2589C28.9181 14.9347 29.9737 13.4029 30.7526 11.7279C29.9521 13.6923 28.7659 15.4762 27.2641 16.9743L15.9696 28.2688L4.68025 16.9743C3.31365 15.6089 2.20578 14.0072 1.41037 12.2468Z" fill="white"/>
</g>
</g>
<g style="mix-blend-mode:screen" opacity="0.5">
<g style="mix-blend-mode:screen" opacity="0.5">
<path d="M15.9854 38.5325C16.121 38.3654 17.2693 36.9877 19.0332 35.0674C19.9672 34.034 21.0736 32.8546 22.2733 31.5966C22.8781 30.9758 23.489 30.3234 24.1309 29.6763C24.7729 29.0291 25.427 28.3664 26.0724 27.7089C26.396 27.3853 26.7455 27.0561 27.0483 26.7434C27.3823 26.4094 27.6644 26.0858 27.9461 25.7497C28.5037 25.0874 29.0064 24.3805 29.449 23.6363C30.2415 22.3109 30.849 20.8835 31.2548 19.3935C31.4428 18.736 31.552 18.1148 31.6566 17.567C31.6881 17.3682 31.714 17.1808 31.7348 17.0054C31.7765 16.6817 31.8079 16.3893 31.829 16.1284C31.8601 15.737 31.8653 15.4082 31.8808 15.1944C31.8916 15.0064 31.8968 14.892 31.8968 14.8656C31.9123 15.022 31.9175 15.1736 31.9227 15.33C31.9331 15.546 31.9383 15.753 31.9383 15.9668C31.9383 16.2692 31.9279 16.5772 31.9072 16.8801C31.6952 20.7954 30.0404 24.4935 27.2621 27.2605L15.9854 38.5325Z" fill="white"/>
</g>
</g>
<g style="mix-blend-mode:multiply" opacity="0.2">
<g style="mix-blend-mode:multiply" opacity="0.2">
<path d="M0.420358 12.3668C0.491207 12.0597 0.568096 11.7534 0.657523 11.4501C0.720165 11.241 0.782815 11.0324 0.855825 10.8237C1.38375 9.25342 2.15524 7.77589 3.14203 6.44525C3.23578 6.31997 3.32995 6.19468 3.43407 6.0694C3.52825 5.9493 3.62718 5.8292 3.72654 5.7091C3.93002 5.47452 4.1335 5.2395 4.35253 5.00967C4.45707 4.89519 4.56853 4.78027 4.6761 4.67054H4.68129C4.74929 4.59576 4.82264 4.52603 4.90075 4.46188H4.90593C7.51801 1.94571 10.9098 0.395093 14.5217 0.0658607C18.1336 -0.263371 21.7498 0.648441 24.7738 2.65088C24.7059 2.61459 24.5962 2.55195 24.4605 2.47375C24.1789 2.31693 23.7616 2.10828 23.2237 1.85253C21.7403 1.1755 20.1643 0.723391 18.5476 0.511121C16.287 0.208047 13.9878 0.384694 11.8 1.02954C10.5778 1.39388 9.40254 1.90004 8.2981 2.5377C7.20454 3.17729 6.19186 3.94603 5.28178 4.82736C5.28178 4.82736 5.27617 4.82218 5.27617 4.82736V4.83255C5.27617 4.83255 5.27098 4.82736 5.27098 4.83255C5.2347 4.86365 5.20316 4.90037 5.16687 4.93148C4.58551 5.49162 4.0497 6.09722 3.56454 6.74247C3.26367 7.14204 2.98322 7.5566 2.72427 7.98451C2.0573 9.07314 1.52464 10.2386 1.13792 11.4553C1.12861 11.4807 1.12154 11.5069 1.11676 11.5335H1.11157V11.5387C0.767647 12.6534 0.540353 13.8007 0.433317 14.9624C0.368794 15.6841 0.353058 16.4094 0.386224 17.1332C0.402209 17.4931 0.433313 17.8482 0.470034 18.1873C0.639473 19.8097 1.05282 21.3973 1.69609 22.8963C1.94666 23.4341 2.13458 23.8618 2.2914 24.1383C2.38515 24.3159 2.45297 24.4463 2.48969 24.5142C1.02903 22.2244 0.184128 19.5964 0.0367306 16.8844L0.0315361 16.8792C0.0103674 16.5768 0 16.2688 0 15.9659C0 15.8407 0.0108059 15.7154 0.01383 15.5901C0.01383 15.5037 0.0198795 15.4173 0.0233356 15.3279C0.035432 15.0254 0.0553036 14.7274 0.0846805 14.4271C0.0989369 14.2785 0.114054 14.1303 0.132631 13.9821C0.152503 13.8258 0.171948 13.6694 0.196573 13.5134C0.239774 13.2451 0.287288 12.9781 0.342586 12.7116C0.366778 12.5971 0.393573 12.4831 0.420358 12.3668Z" fill="black"/>
</g>
</g>
<defs>
<linearGradient id="paint0_linear_2_15" x1="-474.289" y1="379.441" x2="-474.289" y2="400.013" gradientUnits="userSpaceOnUse">
<stop stop-color="#3E6896"/>
<stop offset="0.247" stop-color="#355881"/>
<stop offset="0.75" stop-color="#1F324E"/>
<stop offset="1" stop-color="#131D32"/>
</linearGradient>
<linearGradient id="paint1_linear_2_15" x1="-474.224" y1="402.473" x2="-474.224" y2="416.833" gradientUnits="userSpaceOnUse">
<stop stop-color="#0098BA"/>
<stop offset="0.017" stop-color="#009BBC"/>
<stop offset="0.19" stop-color="#00BAD4"/>
<stop offset="0.371" stop-color="#00D3E7"/>
<stop offset="0.56" stop-color="#00E5F4"/>
<stop offset="0.762" stop-color="#00EFFC"/>
<stop offset="1" stop-color="#00F3FF"/>
</linearGradient>
<linearGradient id="paint2_linear_2_15" x1="-474.207" y1="390.003" x2="-474.207" y2="407.406" gradientUnits="userSpaceOnUse">
<stop stop-color="#5F2C82"/>
<stop offset="0.04" stop-color="#5D3283"/>
<stop offset="0.35" stop-color="#54618E"/>
<stop offset="0.625" stop-color="#4E8396"/>
<stop offset="0.851" stop-color="#4A989B"/>
<stop offset="1" stop-color="#49A09D"/>
</linearGradient>
</defs>
</svg>
